<svg xmlns="http://www.w3.org/2000/svg" width="32" height="32" id="bedge"><path d="M16 0C7.17 0 0 7.17 0 16s7.17 16 16 16 16-7.17 16-16S24.83 0 16 0zm0 .97C24.307.97 31.031 7.694 31.031 16c0 8.307-6.724 15.031-15.031 15.031S.969 24.307.969 16 7.693.97 16 .97zM16 4C9.378 4 4 9.378 4 16s5.378 12 12 12 12-5.378 12-12S22.622 4 16 4zm0 .96c6.103 0 11.04 4.937 11.04 11.04A11.033 11.033 0 0 1 16 27.041 11.033 11.033 0 0 1 4.96 16C4.96 9.897 9.898 4.96 16 4.96zm-.016 4.558c-.256 0-.451.118-.601.24-.15.121-.272.264-.39.424-.239.319-.459.709-.673 1.105-.214.397-.418.799-.6 1.115-.18.317-.386.555-.374.547.011-.01-.279.115-.635.192-.357.076-.802.15-1.244.234-.443.084-.881.175-1.258.305-.188.065-.36.138-.521.244-.162.106-.332.256-.41.5-.08.244-.029.464.04.644.07.18.168.342.284.504.23.325.53.655.841.98.311.327.632.645.877.915s.409.538.405.525c-.005-.013.021.302-.016.664-.037.363-.105.81-.162 1.256-.057.447-.105.89-.098 1.29.004.198.02.385.07.571a.944.944 0 0 0 .35.543c.208.15.432.173.625.163.193-.01.378-.055.569-.114.38-.118.785-.305 1.19-.5.407-.195.811-.397 1.143-.547.333-.15.638-.224.624-.224-.015 0 .293.07.626.218.334.148.736.351 1.143.543.407.193.816.377 1.197.493.19.058.374.1.567.109a.937.937 0 0 0 .625-.164.95.95 0 0 0 .347-.547c.05-.187.064-.373.067-.572.005-.399-.046-.845-.106-1.291-.06-.446-.132-.89-.172-1.252-.04-.363-.013-.678-.017-.664-.004.013.159-.256.402-.528.244-.27.56-.594.87-.921.308-.328.61-.658.837-.985.114-.163.211-.325.28-.506a.95.95 0 0 0 .035-.646c-.08-.244-.25-.393-.412-.498a2.276 2.276 0 0 0-.524-.238c-.377-.128-.817-.218-1.26-.3-.443-.08-.887-.151-1.244-.226-.357-.074-.65-.194-.638-.185.011.01-.194-.23-.377-.545-.183-.316-.39-.717-.606-1.112-.216-.395-.44-.783-.68-1.101a2.292 2.292 0 0 0-.394-.422c-.151-.12-.345-.237-.602-.236zm.004 1.046c.05.044.115.11.194.213.179.238.39.597.6.979.208.381.417.785.618 1.133.202.347.35.632.659.855.308.223.624.274 1.017.356.394.082.842.15 1.27.228.428.078.835.166 1.117.262.124.042.208.084.266.117a1.44 1.44 0 0 1-.145.252c-.17.244-.448.556-.746.873-.298.317-.617.64-.885.94-.268.299-.493.526-.61.888-.116.363-.064.679-.02 1.078.043.4.113.849.171 1.28.058.43.101.847.098 1.144a1.44 1.44 0 0 1-.03.287c-.065-.01-.158-.02-.283-.058a8.803 8.803 0 0 1-1.062-.44c-.393-.186-.799-.39-1.166-.553-.368-.162-.653-.305-1.033-.304-.381 0-.665.145-1.032.31-.366.165-.772.373-1.164.56a8.708 8.708 0 0 1-1.058.446 1.48 1.48 0 0 1-.284.063 1.459 1.459 0 0 1-.03-.29 8.725 8.725 0 0 1 .09-1.144c.054-.431.124-.88.165-1.28.041-.399.09-.715-.03-1.077-.118-.362-.346-.588-.616-.885-.27-.298-.59-.62-.891-.934-.3-.314-.58-.626-.752-.869a1.417 1.417 0 0 1-.145-.25c.057-.034.14-.076.264-.119.281-.097.69-.187 1.117-.268.428-.08.875-.155 1.268-.24.393-.084.708-.136 1.016-.361.307-.225.452-.509.652-.858.2-.348.405-.752.611-1.134.207-.383.418-.746.596-.985.079-.105.144-.17.193-.215z" color="#000" font-family="sans-serif" font-weight="400" overflow="visible" style="line-height:normal;text-indent:0;text-align:start;text-decoration-line:none;text-decoration-style:solid;text-decoration-color:#000;text-transform:none;block-progression:tb;white-space:normal;isolation:auto;mix-blend-mode:normal;solid-color:#000;solid-opacity:1"></path></svg>